# xmcd
# 
# Track frame offsets:
#     150
#     17812
#     37950
#     57552
#     77630
#     97760
# 
# Disc length: 1595
# 
# Revision: 0
# Processed by: cddbd v1.5.2PL0 Copyright (c) Steve Scherf et al.
# Submitted via: fre:ac v1.0.17
# 
DISCID=3d063906
DTITLE=Juvenile - Ha - Single
DYEAR=1999
DGENRE=Hip-Hop
TTITLE0=Ha - Jay-Z remix (clean)
TTITLE1=Ha - Hot Boy$ Remix (clean)
TTITLE2=Ha - Album version (clean)
TTITLE3=Ha - Jay-Z remix (dirty)
TTITLE4=Ha - Hot Boy$ remix (dirty)
TTITLE5=Ha - Album Version (dirty)
EXTD=
EXTT0=
EXTT1=
EXTT2=
EXTT3=
EXTT4=
EXTT5=
PLAYORDER=
